<svg xmlns="http://www.w3.org/2000/svg" xmlns:xlink="http://www.w3.org/1999/xlink" viewBox="0 0 500 500" width="500" height="500" preserveAspectRatio="xMidYMid meet" style="width: 100%; height: 100%; transform: translate3d(0px, 0px, 0px); content-visibility: visible;"><defs><clipPath id="__lottie_element_276"><rect width="500" height="500" x="0" y="0"/></clipPath><clipPath id="__lottie_element_278"><path d="M0,0 L500,0 L500,500 L0,500z"/></clipPath></defs><g clip-path="url(#__lottie_element_276)"><g clip-path="url(#__lottie_element_278)" transform="matrix(1,0,0,1,0,0)" opacity="1" style="display: block;"><g class="primary design" transform="matrix(1,0,0,1,250,250)" opacity="1" style="display: block;"><g opacity="1" transform="matrix(1,0,0,1,0,0)"><path class="primary" fill="rgb(18,19,49)" fill-opacity="1" d=" M0.0020000000949949026,187.5279998779297 C-2.9769999980926514,187.5279998779297 -5.921999931335449,186.6790008544922 -8.46500015258789,185.04400634765625 C-8.46500015258789,185.04400634765625 -32.36899948120117,169.67599487304688 -32.36899948120117,169.67599487304688 C-113.73699951171875,117.36599731445312 -167.64199829101562,32.36000061035156 -180.26199340820312,-63.54600143432617 C-180.26199340820312,-63.54600143432617 -187.3939971923828,-117.7490005493164 -187.3939971923828,-117.7490005493164 C-188.46800231933594,-125.91699981689453 -183.02499389648438,-133.52000427246094 -174.94700622558594,-135.13699340820312 C-139.5019989013672,-142.22900390625 -40.46799850463867,-165.03700256347656 -8.295999526977539,-185.14199829101562 C-3.2219998836517334,-188.31300354003906 3.2179999351501465,-188.31300354003906 8.291999816894531,-185.14199829101562 C40.4640007019043,-165.03700256347656 139.4980010986328,-142.22900390625 174.9429931640625,-135.13699340820312 C183.02099609375,-133.52000427246094 188.46400451660156,-125.91699981689453 187.38999938964844,-117.7490005493164 C187.38999938964844,-117.7490005493164 180.26100158691406,-63.55500030517578 180.26100158691406,-63.55500030517578 C167.6439971923828,32.35499954223633 113.73799896240234,117.36499786376953 32.36600112915039,169.67799377441406 C32.36600112915039,169.67799377441406 8.468000411987305,185.04200744628906 8.468000411987305,185.04200744628906 C6.882999897003174,186.06100463867188 5.126999855041504,186.78500366210938 3.2839999198913574,187.17999267578125 C2.197000026702881,187.41299438476562 1.097000002861023,187.5279998779297 0.0020000000949949026,187.5279998779297z M-154.468994140625,-107.4489974975586 C-154.468994140625,-107.4489974975586 -149.22900390625,-67.62899780273438 -149.22900390625,-67.62899780273438 C-137.81300354003906,19.128999710083008 -89.04900360107422,96.0270004272461 -15.442999839782715,143.3470001220703 C-15.442999839782715,143.3470001220703 0,153.2760009765625 0,153.2760009765625 C0,153.2760009765625 15.4399995803833,143.35000610351562 15.4399995803833,143.35000610351562 C89.05000305175781,96.0270004272461 137.81500244140625,19.125 149.22799682617188,-67.63700103759766 C149.22799682617188,-67.63700103759766 154.46499633789062,-107.4489974975586 154.46499633789062,-107.4489974975586 C121.31500244140625,-114.61000061035156 39.83399963378906,-133.48199462890625 -0.0020000000949949026,-153.93099975585938 C-39.83599853515625,-133.48399353027344 -121.31300354003906,-114.61100006103516 -154.468994140625,-107.4489974975586z"/></g></g></g></g></svg>